<!--?xml version="1.0" encoding="UTF-8"?-->
<svg viewBox="0 0 555.31 121.7" xmlns="http://www.w3.org/2000/svg" data-name="Layer 2" id="Layer_2">
  <defs>
    <style>
      .cls-1 {
        fill: #ffc166;
      }

      .cls-2 {
        fill: #ef413d;
      }

      .cls-3, .cls-4 {
        fill: #24588d;
      }

      .cls-5 {
        fill: #414042;
      }

      .cls-6 {
        letter-spacing: -.02em;
      }

      .cls-7 {
        letter-spacing: -.05em;
      }

      .cls-8 {
        letter-spacing: 0em;
      }

      .cls-9 {
        letter-spacing: 0em;
      }

      .cls-10 {
        letter-spacing: 0em;
      }

      .cls-11 {
        letter-spacing: -.1em;
      }

      .cls-4 {
        font-family: GothamRnd-Bold, 'Gotham Rounded';
        font-size: 67.97px;
        font-weight: 700;
      }

      .cls-12 {
        letter-spacing: 0em;
      }

      .cls-13 {
        letter-spacing: 0em;
      }

      .cls-14 {
        letter-spacing: -.03em;
      }
    </style>
  </defs>
  <g data-name="Layer 1" id="Layer_1-2">
    <g>
      <g>
        <path d="m123.17,63.51L66.24,10.41c-3.15-2.93-7.94-2.9-10.72.08L12.37,56.77c-2.78,2.98-2.48,7.76.66,10.7l55.28,51.42c4.06,3.78,10.25,3.74,13.83-.11l41.7-44.57c2.77-2.98,2.47-7.77-.68-10.7h0Zm-89.71,8.86c-.2.18-.51.18-.7,0l-8.51-7.97c-.19-.2-.19-.51,0-.71l7.64-8.15c.2-.18.51-.18.7,0l8.51,7.97c.19.2.19.51,0,.71l-7.64,8.16Zm11.82,11.45l-3.91-3.67c-.33-.3-.34-.82-.04-1.14,0,0,0,0,0,0l25.95-27.7c.3-.33.82-.34,1.14-.04,0,0,0,0,0,0l3.91,3.66c.33.3.34.82.04,1.14,0,0,0,0,0,0l-25.98,27.7c-.3.31-.8.33-1.12.04h0Zm27.51-6.7l-15.65,16.7c-.3.33-.82.34-1.14.04,0,0,0,0,0,0l-3.91-3.66c-.33-.3-.34-.82-.04-1.14,0,0,0,0,0,0l15.65-16.7c.3-.32.81-.34,1.13-.04,0,0,0,0,0,0l3.92,3.66c.32.31.34.82.03,1.14,0,0,0,0,0,0Z" class="cls-3"></path>
        <path d="m100.63.04c-7.77.25-15.13,3.54-20.49,9.17l-7.1,7.56,29.16,27.2c-4.74,8.02-3.3,18.25,3.45,24.66h.03l13.53-14.44,4.02-4.29c11.19-11.95,10.57-30.71-1.38-41.89C116.11,2.63,108.48-.24,100.63.02v.02Z" class="cls-1"></path>
        <path d="m54.05,12.04l-4.37-4.09C37.63-3.13,18.88-2.33,7.81,9.73c-10.91,11.89-10.31,30.32,1.35,41.47l4.47,4.2,26.91-28.85c7.99,7.48,20.52,7.07,28.01-.91l-14.49-13.6Z" class="cls-1"></path>
      </g>
      <g>
        <text transform="translate(155.16 59.03)" class="cls-4"><tspan y="0" x="0" class="cls-6">M</tspan><tspan y="0" x="57.51" class="cls-9">Y</tspan><tspan y="0" x="104.06" class="cls-11"> </tspan><tspan y="0" x="117.45" class="cls-12">L</tspan><tspan y="0" x="159.19" class="cls-14">E</tspan><tspan y="0" x="202.72" class="cls-10">G</tspan><tspan y="0" x="255.6" class="cls-7">A</tspan><tspan y="0" x="303.99" class="cls-13">C</tspan><tspan y="0" x="353.59" class="cls-8">Y</tspan></text>
        <g>
          <g>
            <path d="m401.77,81.85c0-1.87,1.47-3.34,3.34-3.34s3.34,1.48,3.34,3.34v21.22h12.37c1.69,0,3.04,1.35,3.04,3.04s-1.34,3.04-3.04,3.04h-15.71c-1.87,0-3.34-1.48-3.34-3.34v-23.95Z" class="cls-5"></path>
            <path d="m440.45,91.38h-.26c-1.52,0-2.73-1.17-2.73-2.69s1.22-2.73,2.73-2.73h.26v-1.48c0-2.56.65-4.43,1.87-5.64,1.22-1.21,2.99-1.82,5.34-1.82,1.04,0,1.95.04,2.69.17,1.13.17,2.26,1.17,2.26,2.65s-1.22,2.73-2.69,2.73h-.56c-1.52,0-2.39.78-2.39,2.52v.91h2.86c1.52,0,2.73,1.17,2.73,2.69s-1.22,2.69-2.73,2.69h-2.78v14.58c0,1.82-1.48,3.3-3.3,3.3s-3.3-1.48-3.3-3.3v-14.58Z" class="cls-5"></path>
            <path d="m470.43,95.55c-.39-2.95-2.13-4.95-4.9-4.95s-4.51,1.95-5.03,4.95h9.94Zm-4.25,13.97c-6.99,0-12.15-4.9-12.15-12.02v-.09c0-6.64,4.73-12.11,11.5-12.11,7.77,0,11.2,6.38,11.2,11.2,0,1.91-1.35,3.17-3.08,3.17h-13.06c.65,2.99,2.73,4.56,5.68,4.56,1.82,0,3.34-.56,4.69-1.56.48-.35.91-.52,1.61-.52,1.48,0,2.56,1.13,2.56,2.6,0,.87-.39,1.52-.87,1.95-2.04,1.74-4.69,2.82-8.07,2.82" class="cls-5"></path>
            <path d="m433.96,88.57c-.11-1.72-1.54-3.08-3.29-3.08s-3.18,1.36-3.29,3.08c0,.07-.01.14-.01.21v8.95h0v8.23c0,.33.05.64.14.94.34,1.16,1.3,2.05,2.5,2.29.21.04.44.07.66.07s.45-.02.66-.07c1.2-.24,2.15-1.14,2.5-2.29.09-.3.14-.61.14-.94v-8.23h0v-8.95c0-.07,0-.14-.01-.21" class="cls-5"></path>
            <path d="m434.25,79.4c-.38-1.44-1.81-2.29-3.58-2.29s-3.2.85-3.58,2.29c-.07.25-.1.51-.1.79v.09c0,1.91,1.61,3.12,3.69,3.12s3.69-1.21,3.69-3.12v-.09c0-.28-.04-.54-.1-.79" class="cls-5"></path>
            <path d="m481.1,105.65c-.76-.54-1.3-1.52-1.3-2.6,0-1.79,1.43-3.18,3.23-3.18.9,0,1.52.31,1.97.63,2.38,1.75,4.98,2.82,8.02,2.82,2.82,0,4.53-1.12,4.53-2.96v-.09c0-1.75-1.08-2.64-6.32-3.99-6.32-1.61-10.4-3.36-10.4-9.59v-.09c0-5.69,4.57-9.46,10.98-9.46,3.81,0,7.13.99,9.95,2.78.76.45,1.52,1.39,1.52,2.73,0,1.79-1.43,3.18-3.23,3.18-.67,0-1.21-.18-1.75-.49-2.29-1.34-4.44-2.11-6.59-2.11-2.65,0-4.03,1.21-4.03,2.73v.09c0,2.06,1.34,2.73,6.77,4.12,6.37,1.66,9.95,3.94,9.95,9.41v.09c0,6.23-4.75,9.73-11.52,9.73-4.12,0-8.29-1.26-11.79-3.77" class="cls-2"></path>
            <path d="m507.59,93.37v-.09c0-8.92,6.95-16.23,16.45-16.23,4.75,0,7.89,1.08,10.71,3.05.67.49,1.43,1.43,1.43,2.78,0,1.88-1.52,3.41-3.41,3.41-.99,0-1.61-.36-2.11-.72-1.88-1.34-3.9-2.15-6.86-2.15-5.02,0-9.01,4.44-9.01,9.77v.09c0,5.74,3.94,9.95,9.5,9.95,2.51,0,4.75-.63,6.5-1.88v-4.48h-4.66c-1.66,0-3-1.3-3-2.96s1.34-3,3-3h7.89c1.93,0,3.45,1.52,3.45,3.45v7.62c0,2.02-.76,3.41-2.42,4.39-2.56,1.57-6.28,3.14-10.98,3.14-9.77,0-16.5-6.86-16.5-16.14" class="cls-2"></path>
          </g>
          <path d="m393.05,93.61c-.21-8.52-7.2-15.39-15.77-15.39s-15.78,7.08-15.78,15.78,7.08,15.78,15.78,15.78c.82,0,1.48-.66,1.48-1.48s-.66-1.48-1.48-1.48c-7.07,0-12.82-5.75-12.82-12.82s5.75-12.82,12.82-12.82,12.82,5.75,12.82,12.82v1.87c0,1.55-1.18,2.8-2.62,2.8s-2.62-1.26-2.62-2.8v-7.96c0-.82-.66-1.48-1.48-1.48s-1.48.66-1.48,1.48v.11c-1.28-.99-2.88-1.58-4.62-1.58-4.18,0-7.57,3.4-7.57,7.57s3.4,7.57,7.57,7.57c2.21,0,4.2-.96,5.58-2.47,1.01,1.52,2.7,2.53,4.61,2.53,3.08,0,5.58-2.58,5.58-5.76v-2.13s0-.08,0-.12Zm-15.77,5c-2.55,0-4.62-2.07-4.62-4.62s2.07-4.62,4.62-4.62,4.62,2.07,4.62,4.62-2.07,4.62-4.62,4.62Z" class="cls-5"></path>
        </g>
      </g>
    </g>
  </g>
</svg>