<svg viewBox="0 0 141.32 141.32" xmlns="http://www.w3.org/2000/svg"><defs><style>.cls-1{opacity:0.85;}.cls-2{fill:#fff;}</style></defs><g data-name="Layer 2" id="Layer_2"><g data-name="Layer 1" id="Layer_1-2"><g class="cls-1"><path d="M120.63,20.7A70.66,70.66,0,1,0,20.7,120.63,70.66,70.66,0,0,0,120.63,20.7Zm-5.12,94.81a63.43,63.43,0,1,1-89.7-89.7,63.43,63.43,0,1,1,89.7,89.7Z" class="cls-2"></path><path d="M98.58,66.74,61.19,43A4.65,4.65,0,0,0,54.05,47V94.37a4.65,4.65,0,0,0,7.14,3.93L98.58,74.59A4.65,4.65,0,0,0,98.58,66.74Z" class="cls-2"></path></g></g></g></svg>